<svg width="45" height="29" viewBox="0 0 45 29" fill="none" xmlns="http://www.w3.org/2000/svg">
<path d="M43.5399 26.7989C42.5189 26.9347 41.4805 26.8386 40.5017 26.5176C39.6717 26.2387 38.9154 25.776 38.2888 25.1641C37.676 24.5284 36.8815 24.0985 36.0145 23.9335C35.9472 23.9292 35.8798 23.9292 35.8125 23.9335L35.0047 22.7118C35.4661 22.8141 35.937 22.8672 36.4096 22.87C37.6605 22.8943 38.8919 22.558 39.9572 21.9014C41.0224 21.2448 41.8766 20.2954 42.418 19.1665C42.9593 18.0375 43.1649 16.7766 43.0104 15.5339C42.8558 14.2913 42.3476 13.1193 41.5462 12.1577C40.7449 11.1961 39.6842 10.4853 38.4906 10.1102C37.297 9.735 36.0208 9.71124 34.8141 10.0417C33.6074 10.3722 32.5211 11.043 31.6846 11.9741C30.848 12.9053 30.2966 14.0575 30.096 15.2936L25.5474 8.40267C25.5081 8.34258 25.4872 8.27232 25.4872 8.20051C25.4872 8.1287 25.5081 8.05844 25.5474 7.99835C25.5739 7.94123 25.616 7.89276 25.6688 7.85855C25.7216 7.82433 25.783 7.80577 25.8459 7.80499H33.468C34.502 7.80499 35.4937 7.39383 36.2248 6.66197C36.956 5.93011 37.3668 4.9375 37.3668 3.90249C37.3668 2.86749 36.956 1.87487 36.2248 1.14301C35.4937 0.411154 34.502 0 33.468 0H18.3556C17.8134 0.000692885 17.2796 0.13398 16.8006 0.388266C16.3216 0.642551 15.9119 1.01013 15.6072 1.45904C15.2929 1.92355 15.0973 2.45818 15.0376 3.01599C14.9779 3.57381 15.0559 4.13777 15.2647 4.65838L19.4796 15.2584C19.6184 15.5958 19.6411 15.9697 19.5441 16.3214C19.4471 16.6731 19.236 16.9825 18.944 17.2009L9.60964 24.2324C9.34392 24.2063 9.07628 24.2063 8.81056 24.2324C8.1592 24.3145 7.53642 24.5494 6.99287 24.918C6.44939 25.256 5.87972 25.5499 5.28933 25.7969C3.85767 26.3819 2.34389 26.7407 0.80217 26.8604C0.570569 26.8805 0.356392 26.9918 0.206598 27.1697C0.0568036 27.3477 -0.0163818 27.5778 0.003087 27.8097C0.0119512 27.9252 0.0435601 28.0379 0.0960949 28.1412C0.14863 28.2444 0.221053 28.3363 0.309196 28.4115C0.397339 28.4866 0.499461 28.5436 0.609685 28.5791C0.71991 28.6146 0.836059 28.6279 0.951449 28.6183C2.6709 28.477 4.35875 28.0739 5.95669 27.4229C6.62187 27.1547 7.26488 26.8343 7.87976 26.4649C8.21674 26.2205 8.60893 26.0635 9.02131 26.0078C10.0663 25.876 10.7073 26.377 11.5942 27.0626C12.5464 27.9231 13.7263 28.4907 14.9925 28.6974C15.7372 28.7509 16.4849 28.6454 17.1858 28.3878C17.8867 28.1302 18.5249 27.7264 19.0581 27.2032C19.9154 26.3949 21.0267 25.9102 22.2018 25.832C23.4998 25.8487 24.7477 26.3359 25.7142 27.2032C26.745 28.0965 28.0413 28.6248 29.4023 28.7062C29.6611 28.7065 29.9195 28.6859 30.175 28.6447C31.5212 28.3896 32.7514 27.7124 33.6875 26.711C34.5129 25.9551 34.9783 25.5684 35.7247 25.6826C36.2577 25.8108 36.7388 26.0991 37.1034 26.5088C37.9094 27.2715 38.8711 27.8503 39.9221 28.2052C41.1472 28.6056 42.4459 28.7287 43.7243 28.5656C43.8431 28.5559 43.9587 28.5221 44.0641 28.4663C44.1694 28.4104 44.2623 28.3337 44.337 28.2408C44.4118 28.1479 44.4669 28.0407 44.4989 27.9258C44.531 27.8108 44.5393 27.6906 44.5234 27.5723C44.5104 27.4566 44.4745 27.3446 44.4178 27.2428C44.3612 27.1411 44.2848 27.0516 44.1933 26.9797C44.1018 26.9077 43.9969 26.8546 43.8848 26.8236C43.7726 26.7926 43.6554 26.7842 43.5399 26.7989ZM36.4096 11.5581C37.3576 11.5336 38.2912 11.7926 39.0913 12.3019C39.8915 12.8112 40.5217 13.5478 40.9015 14.4174C41.2813 15.2871 41.3935 16.2503 41.2236 17.1841C41.0537 18.1178 40.6096 18.9797 39.9479 19.6595C39.2862 20.3394 38.4371 20.8063 37.5089 21.0006C36.5808 21.195 35.6159 21.1079 34.7374 20.7506C33.859 20.3933 33.1069 19.7819 32.5773 18.9946C32.0478 18.2073 31.7647 17.2798 31.7644 16.3307C31.7563 15.712 31.87 15.0978 32.0991 14.5231C32.3281 13.9484 32.668 13.4245 33.0994 12.9813C33.5308 12.5381 34.0451 12.1843 34.6131 11.9401C35.1811 11.6959 35.7915 11.5661 36.4096 11.5581ZM32.5284 25.4453C31.8545 26.2023 30.9558 26.723 29.9643 26.9307C28.6647 27.1329 27.8305 26.544 26.7768 25.7969C25.4963 24.6966 23.863 24.0944 22.1754 24.1005C20.6285 24.195 19.1602 24.8152 18.0132 25.8584C17.0824 26.5792 16.4062 27.1065 15.2032 26.9571C14.2525 26.7854 13.3713 26.3429 12.6655 25.6826C12.3341 25.4147 11.9882 25.1653 11.6293 24.9355L19.9977 18.6599C20.5963 18.2081 21.0297 17.5719 21.2312 16.8492C21.4328 16.1264 21.3912 15.3574 21.1129 14.6607L16.898 4.0607C16.7936 3.8081 16.7542 3.53334 16.7834 3.26157C16.8125 2.98979 16.9093 2.72966 17.0648 2.50498C17.1921 2.27169 17.3783 2.07589 17.6048 1.93709C17.8313 1.79829 18.0902 1.72135 18.3556 1.71393H33.4504C34.0187 1.71393 34.5636 1.93988 34.9655 2.34208C35.3673 2.74427 35.593 3.28976 35.593 3.85855C35.593 4.42733 35.3673 4.97282 34.9655 5.37502C34.5636 5.77721 34.0187 6.00316 33.4504 6.00316H25.8284C25.4476 6.00433 25.0743 6.10873 24.748 6.30528C24.4218 6.50182 24.1548 6.78317 23.9756 7.11941C23.7934 7.46267 23.7071 7.84873 23.7256 8.23697C23.7441 8.6252 23.8669 9.00126 24.0809 9.32555L33.9861 24.2939C33.4543 24.6157 32.9647 25.0025 32.5284 25.4453Z" fill="#0FB9B1"/>
</svg>
