<svg width="30" height="30" viewBox="0 0 30 30" fill="none" xmlns="http://www.w3.org/2000/svg">
<path d="M17.1975 18.2199H16.5125C16.342 18.2197 16.1747 18.173 16.0287 18.0849C15.8827 17.9969 15.7634 17.8707 15.6837 17.7199L15 16.4312L14.3162 17.7212C14.2365 17.8719 14.1173 17.9981 13.9713 18.0862C13.8253 18.1743 13.658 18.2209 13.4875 18.2212H12.8025L13.5662 18.9599C13.6857 19.0768 13.7719 19.2234 13.8158 19.3847C13.8598 19.546 13.8599 19.7161 13.8162 19.8774L13.4825 21.1087L14.5225 20.4999C14.6661 20.4156 14.8297 20.3712 14.9962 20.3712C15.1628 20.3712 15.3263 20.4156 15.47 20.4999L16.51 21.1087L16.1762 19.8774C16.1326 19.7161 16.1327 19.546 16.1767 19.3847C16.2206 19.2234 16.3068 19.0768 16.4262 18.9599L17.1975 18.2199Z" fill="#6EE7E7"/>
<path d="M14.9738 9.86011C13.1367 9.86011 11.3408 10.4049 9.81326 11.4255C8.28573 12.4462 7.09517 13.8969 6.39213 15.5942C5.68908 17.2915 5.50513 19.1592 5.86354 20.961C6.22195 22.7628 7.10662 24.4179 8.40568 25.717C9.70473 27.0161 11.3598 27.9007 13.1617 28.2591C14.9635 28.6175 16.8312 28.4336 18.5285 27.7305C20.2258 27.0275 21.6765 25.8369 22.6971 24.3094C23.7178 22.7819 24.2626 20.986 24.2626 19.1489C24.2599 16.6861 23.2804 14.325 21.539 12.5836C19.7976 10.8422 17.4365 9.86275 14.9738 9.86011ZM20.1663 17.9564L18.1351 19.9214L18.9201 22.8276C18.968 23.0067 18.9617 23.1961 18.902 23.3716C18.8423 23.5472 18.7318 23.7011 18.5846 23.8139C18.4375 23.9267 18.2601 23.9933 18.0751 24.0053C17.89 24.0173 17.7056 23.9742 17.5451 23.8814L15.0001 22.3951L12.4601 23.8814C12.2995 23.9735 12.1152 24.0162 11.9304 24.0039C11.7457 23.9916 11.5687 23.9249 11.4217 23.8123C11.2747 23.6997 11.1643 23.5461 11.1044 23.3709C11.0445 23.1957 11.0378 23.0066 11.0851 22.8276L11.8701 19.9214L9.83381 17.9564C9.69957 17.8265 9.6072 17.6595 9.56852 17.4767C9.52985 17.294 9.54665 17.1038 9.61676 16.9307C9.68687 16.7576 9.8071 16.6093 9.96203 16.505C10.117 16.4007 10.2995 16.345 10.4863 16.3451H12.9238L14.1738 13.9889C14.2615 13.8481 14.3836 13.7319 14.5286 13.6514C14.6736 13.5708 14.8367 13.5286 15.0026 13.5286C15.1684 13.5286 15.3316 13.5708 15.4766 13.6514C15.6216 13.7319 15.7436 13.8481 15.8313 13.9889L17.0813 16.3451H19.5188C19.7056 16.345 19.8882 16.4007 20.0431 16.505C20.198 16.6093 20.3183 16.7576 20.3884 16.9307C20.4585 17.1038 20.4753 17.294 20.4366 17.4767C20.3979 17.6595 20.3056 17.8265 20.1713 17.9564H20.1663Z" fill="#6EE7E7"/>
<path d="M27 3.06258L22.5 8.97508L21.2125 10.6626C19.412 9.3352 17.2348 8.61701 14.9979 8.61251C12.7609 8.60801 10.5809 9.31745 8.77501 10.6376L3.00001 3.07508C2.89513 2.93486 2.83139 2.76819 2.81593 2.59376C2.80048 2.41934 2.83392 2.24406 2.91251 2.08758C2.98681 1.92878 3.10534 1.79478 3.25389 1.70166C3.40244 1.60854 3.5747 1.56025 3.75001 1.56258H11C11.1441 1.56324 11.2863 1.59613 11.4161 1.65886C11.5459 1.72158 11.6599 1.81254 11.75 1.92508L15.15 6.31258L18.1625 1.96258C18.2499 1.83841 18.366 1.73719 18.501 1.66755C18.6359 1.5979 18.7857 1.56189 18.9375 1.56258H26.25C26.4253 1.56025 26.5976 1.60854 26.7461 1.70166C26.8947 1.79478 27.0132 1.92878 27.0875 2.08758C27.1663 2.24182 27.1999 2.41519 27.1844 2.5877C27.1689 2.76022 27.105 2.92484 27 3.06258Z" fill="#6EE7E7"/>
</svg>
