<svg width="44" height="24" viewBox="0 0 44 24" fill="none" xmlns="http://www.w3.org/2000/svg">
<path d="M43.9024 16.8982C43.7985 16.6669 43.5686 16.518 43.3149 16.518H36.3882V15.0529H38.4972C38.781 15.0529 39.0313 14.8671 39.1135 14.5955C39.1957 14.324 39.0905 14.0305 38.8544 13.8731L35.4185 11.5825C34.8586 11.2093 34.207 11.012 33.5343 11.012H29.5058V9.54689H31.6147C31.8985 9.54689 32.1489 9.36109 32.231 9.08953C32.3132 8.81796 32.208 8.5245 31.9719 8.36713L28.536 6.07646C27.9761 5.70323 27.3245 5.50593 26.6518 5.50593H22.9895L19.4662 0.808173C19.0867 0.302131 18.4825 0 17.8499 0H16.4734C16.2622 0 16.0645 0.103543 15.9441 0.277147C15.8238 0.45075 15.7962 0.672261 15.8704 0.86999L17.7612 5.91204C17.2524 6.18661 16.8144 6.59151 16.4951 7.10245L14.0517 11.0119H8.49564C7.23414 11.0119 6.08374 11.7045 5.49347 12.8194L0.0748537 23.0548C-0.0308365 23.2544 -0.0242255 23.4948 0.0922827 23.6883C0.208791 23.8817 0.418111 24 0.643915 24H36.5727C37.5422 24 38.4676 23.5845 39.1116 22.8599L43.7962 17.5897C43.9647 17.4002 44.0063 17.1295 43.9024 16.8982ZM35.1004 16.518H32.947V15.0529H35.1004V16.518ZM29.5058 16.518V15.0529H31.6591V16.518H29.5058ZM24.3978 16.518L24.7377 15.8382C24.9799 15.3538 25.4669 15.0529 26.0085 15.0529H28.218V16.518H24.3978ZM28.2179 11.012H26.0645V9.54697H28.2179V11.012ZM21.6448 11.012L22.1749 9.95188C22.2998 9.70212 22.5509 9.54689 22.8302 9.54689H24.7767V11.012H21.6448V11.012ZM17.4027 1.28803H17.85C18.0794 1.28803 18.2985 1.39758 18.4361 1.58106L21.3799 5.50611H19.3759C19.2468 5.50611 19.1192 5.51452 18.993 5.5286L17.4027 1.28803ZM11.0119 15.0529V16.518H8.85847V15.0529H11.0119ZM16.1198 15.0529L15.78 15.7326C15.5378 16.2171 15.0509 16.5181 14.5092 16.5181H12.2998V15.053H16.1198V15.0529ZM7.57061 16.518H4.99267L5.7683 15.0529H7.57061V16.518ZM39.9668 19.9592H9.59109C9.23547 19.9592 8.94716 20.2475 8.94716 20.6031C8.94716 20.9588 9.23547 21.2471 9.59109 21.2471H38.8221L38.149 22.0043C37.7492 22.4542 37.1746 22.7122 36.5727 22.7122H1.71344L2.48907 21.2472H6.83782C7.19344 21.2472 7.48175 20.9589 7.48175 20.6032C7.48175 20.2476 7.19344 19.9593 6.83782 19.9593H3.17086L4.31087 17.8059H14.5092C15.5418 17.8059 16.4701 17.2321 16.9318 16.3087L17.7376 14.697C17.8375 14.4974 17.8269 14.2604 17.7095 14.0705C17.5921 13.8807 17.3849 13.7651 17.1617 13.7651H6.45018L6.63168 13.4222C6.9982 12.73 7.71236 12.3 8.49564 12.3H16.4734C16.829 12.3 17.1173 12.0117 17.1173 11.6561C17.1173 11.3004 16.829 11.0121 16.4734 11.0121H15.5706L17.5874 7.78536C17.9754 7.1647 18.644 6.79414 19.3759 6.79414H26.6519C27.0696 6.79414 27.4742 6.91665 27.8218 7.1483L29.4881 8.2592H22.8303C22.06 8.2592 21.3676 8.6872 21.0231 9.37612L20.2051 11.0122H19.2264C18.8708 11.0122 18.5825 11.3005 18.5825 11.6561C18.5825 12.0118 18.8708 12.3001 19.2264 12.3001H33.5343C33.952 12.3001 34.3566 12.4226 34.7042 12.6542L36.3706 13.7651H26.0084C24.9758 13.7651 24.0476 14.3388 23.5857 15.2624L22.78 16.874C22.6801 17.0736 22.6908 17.3107 22.8081 17.5005C22.9255 17.6904 23.1327 17.8059 23.3559 17.8059H41.8809L39.9668 19.9592Z" fill="white"/>
</svg>
